<?xml version="1.0" encoding="UTF-8" standalone="no"?>
<!-- Generator: Adobe Illustrator 16.0.0, SVG Export Plug-In . SVG Version: 6.00 Build 0)  -->

<svg xmlns:dc="http://purl.org/dc/elements/1.1/" xmlns:cc="http://creativecommons.org/ns#" xmlns:rdf="http://www.w3.org/1999/02/22-rdf-syntax-ns#" xmlns:svg="http://www.w3.org/2000/svg" xmlns="http://www.w3.org/2000/svg" xmlns:xlink="http://www.w3.org/1999/xlink" xmlns:sodipodi="http://sodipodi.sourceforge.net/DTD/sodipodi-0.dtd" xmlns:inkscape="http://www.inkscape.org/namespaces/inkscape" version="1.1" id="Layer_1" x="0px" y="0px" width="1000.929px" height="777.787px" viewBox="0 0 1000.929 777.787" enable-background="new 0 0 1000.929 777.787" xml:space="preserve" inkscape:version="0.48.5 r10040" sodipodi:docname="Mastercard-logo.svg"><metadata id="metadata3022"><rdf:RDF><cc:Work rdf:about=""><dc:format>image/svg+xml</dc:format><dc:type rdf:resource="http://purl.org/dc/dcmitype/StillImage" /><dc:title></dc:title></cc:Work></rdf:RDF></metadata><defs id="defs3020"><linearGradient id="linearGradient3128" inkscape:collect="always"><stop id="stop3130" offset="0" style="stop-color:#747474;stop-opacity:1" /><stop id="stop3132" offset="1" style="stop-color:#d5d5d5;stop-opacity:1" /></linearGradient><linearGradient inkscape:collect="always" id="linearGradient3118"><stop style="stop-color:#7a7a7a;stop-opacity:1" offset="0" id="stop3120" /><stop style="stop-color:#5a5a5a;stop-opacity:1" offset="1" id="stop3122" /></linearGradient><linearGradient inkscape:collect="always" id="linearGradient3110"><stop style="stop-color:#626262;stop-opacity:1" offset="0" id="stop3112" /><stop style="stop-color:#4b4b4b;stop-opacity:1" offset="1" id="stop3114" /></linearGradient><linearGradient gradientUnits="userSpaceOnUse" y2="163.57941" x2="247.44025" y1="163.57941" x1="100.35948" id="linearGradient3064" xlink:href="#linearGradient3058" inkscape:collect="always" /><linearGradient gradientUnits="userSpaceOnUse" y2="171.56183" x2="342.38654" y1="171.56183" x1="234.01619" id="linearGradient3056" xlink:href="#linearGradient3050" inkscape:collect="always" /><linearGradient gradientUnits="userSpaceOnUse" y2="165.67485" x2="248.30708" y1="165.67485" x1="100.94078" id="linearGradient3048" xlink:href="#linearGradient3042" inkscape:collect="always" /><linearGradient id="linearGradient3042" inkscape:collect="always"><stop id="stop3044" offset="0" style="stop-color:#616161;stop-opacity:1" /><stop id="stop3046" offset="1" style="stop-color:#c2c2c2;stop-opacity:1" /></linearGradient><linearGradient id="linearGradient3050" inkscape:collect="always"><stop id="stop3052" offset="0" style="stop-color:#7b7b7b;stop-opacity:1" /><stop id="stop3054" offset="1" style="stop-color:#595959;stop-opacity:1" /></linearGradient><linearGradient id="linearGradient3058" inkscape:collect="always"><stop id="stop3060" offset="0" style="stop-color:#646464;stop-opacity:1" /><stop id="stop3062" offset="1" style="stop-color:#454545;stop-opacity:1" /></linearGradient><linearGradient inkscape:collect="always" xlink:href="#linearGradient3110" id="linearGradient3116" x1="4.7928243" y1="312.88147" x2="613.52606" y2="312.88147" gradientUnits="userSpaceOnUse" /><linearGradient inkscape:collect="always" xlink:href="#linearGradient3118" id="linearGradient3124" x1="382.22903" y1="305.6922" x2="618.27948" y2="305.6922" gradientUnits="userSpaceOnUse" /><linearGradient inkscape:collect="always" xlink:href="#linearGradient3128" id="linearGradient3126" x1="379.57361" y1="306.70905" x2="1003.389" y2="306.70905" gradientUnits="userSpaceOnUse" /></defs><sodipodi:namedview pagecolor="#ffffff" bordercolor="#666666" borderopacity="1" objecttolerance="10" gridtolerance="10" guidetolerance="10" inkscape:pageopacity="0" inkscape:pageshadow="2" inkscape:window-width="1366" inkscape:window-height="706" id="namedview3018" showgrid="false" inkscape:zoom="0.20864454" inkscape:cx="739.96561" inkscape:cy="302.44498" inkscape:window-x="-8" inkscape:window-y="-8" inkscape:window-maximized="1" inkscape:current-layer="Layer_1" />
<g id="g2986">
	<path d="m 171.498,698.169 c -2.87,-2.875 -6.274,-5.109 -10.214,-6.709 -3.942,-1.592 -8.26,-2.389 -12.944,-2.389 -2.483,0 -5.059,0.209 -7.733,0.642 -2.676,0.425 -5.291,1.183 -7.855,2.257 -2.566,1.09 -5.006,2.582 -7.321,4.491 -2.315,1.909 -4.331,4.32 -6.035,7.219 -2.759,-4.553 -6.495,-8.131 -11.208,-10.721 -4.715,-2.589 -10.108,-3.888 -16.171,-3.888 -2.041,0 -4.146,0.186 -6.326,0.549 -2.178,0.371 -4.342,1.013 -6.491,1.925 -2.153,0.912 -4.207,2.156 -6.162,3.718 -1.958,1.569 -3.735,3.548 -5.333,5.943 V 691.205 H 50.5 v 81.867 h 17.364 v -45.378 c 0,-3.471 0.555,-6.563 1.656,-9.268 1.103,-2.713 2.58,-4.97 4.427,-6.794 1.845,-1.831 4.009,-3.207 6.491,-4.15 2.481,-0.935 5.128,-1.406 7.938,-1.406 5.845,0 10.38,1.847 13.605,5.557 3.225,3.702 4.84,8.997 4.84,15.892 v 45.548 h 17.37 v -45.378 c 0,-3.471 0.549,-6.563 1.654,-9.268 1.1,-2.713 2.576,-4.97 4.423,-6.794 1.845,-1.831 4.009,-3.207 6.49,-4.15 2.481,-0.935 5.128,-1.406 7.942,-1.406 5.841,0 10.376,1.847 13.607,5.557 3.225,3.702 4.834,8.997 4.834,15.892 v 45.548 h 17.37 v -51.445 c 0,-4.784 -0.789,-9.167 -2.359,-13.163 -1.57,-3.99 -3.791,-7.422 -6.654,-10.297" id="path2988" inkscape:connector-curvature="0" />
	<path d="m 263.09,701.121 c -2.85,-3.647 -6.384,-6.569 -10.599,-8.757 -4.214,-2.195 -9.26,-3.293 -15.124,-3.293 -5.754,0 -11.109,1.066 -16.067,3.2 -4.954,2.141 -9.285,5.116 -12.989,8.935 -3.704,3.811 -6.608,8.355 -8.718,13.627 -2.104,5.271 -3.162,11.037 -3.162,17.306 0,6.269 1.057,12.034 3.162,17.306 2.11,5.271 5.014,9.809 8.718,13.635 3.704,3.811 8.035,6.786 12.989,8.927 4.958,2.134 10.313,3.2 16.067,3.2 5.864,0 10.91,-1.082 15.124,-3.246 4.214,-2.165 7.749,-5.07 10.599,-8.711 v 9.823 h 17.858 V 691.206 H 263.09 v 9.915 z m -0.686,41.444 c -1.194,3.192 -2.877,5.951 -5.042,8.285 -2.164,2.343 -4.755,4.174 -7.775,5.512 -3.02,1.345 -6.384,2.01 -10.083,2.01 -3.875,0 -7.337,-0.696 -10.384,-2.095 -3.047,-1.392 -5.629,-3.277 -7.733,-5.635 -2.11,-2.365 -3.731,-5.14 -4.871,-8.332 -1.14,-3.192 -1.71,-6.578 -1.71,-10.172 0,-3.586 0.57,-6.979 1.71,-10.172 1.14,-3.185 2.761,-5.967 4.871,-8.324 2.104,-2.373 4.686,-4.251 7.733,-5.643 3.047,-1.398 6.51,-2.095 10.384,-2.095 3.698,0 7.063,0.673 10.083,2.01 3.02,1.338 5.611,3.169 7.775,5.512 2.165,2.334 3.848,5.093 5.042,8.285 1.196,3.192 1.793,6.662 1.793,10.427 0,3.765 -0.596,7.235 -1.793,10.427" id="path2990" inkscape:connector-curvature="0" />
	<path d="m 363.046,732.007 c -5.015,-3.895 -11.996,-6.5 -20.938,-7.813 l -8.458,-1.283 c -1.884,-0.286 -3.648,-0.61 -5.298,-0.981 -1.654,-0.371 -3.078,-0.866 -4.274,-1.5 -1.194,-0.626 -2.149,-1.422 -2.862,-2.388 -0.711,-0.967 -1.067,-2.165 -1.067,-3.595 0,-2.906 1.353,-5.256 4.056,-7.049 2.707,-1.793 6.51,-2.689 11.408,-2.689 2.564,0 5.086,0.224 7.563,0.688 2.481,0.456 4.827,1.021 7.051,1.7 2.22,0.688 4.243,1.446 6.067,2.272 1.82,0.819 3.36,1.608 4.614,2.342 l 7.688,-13.92 c -4.27,-2.736 -9.255,-4.861 -14.954,-6.369 -5.694,-1.507 -11.762,-2.265 -18.2,-2.265 -5.244,0 -9.942,0.611 -14.1,1.84 -4.158,1.222 -7.704,2.96 -10.637,5.21 -2.937,2.249 -5.188,4.992 -6.751,8.247 -1.571,3.246 -2.35,6.894 -2.35,10.937 0,6.608 2.35,11.949 7.047,16.022 4.701,4.073 11.611,6.732 20.724,7.992 l 8.544,1.112 c 4.9,0.681 8.489,1.778 10.769,3.285 2.278,1.516 3.418,3.432 3.418,5.774 0,3.068 -1.567,5.503 -4.701,7.304 -3.134,1.793 -7.776,2.689 -13.93,2.689 -3.36,0 -6.363,-0.224 -9.014,-0.688 -2.647,-0.456 -5.07,-1.066 -7.261,-1.832 -2.197,-0.772 -4.16,-1.654 -5.897,-2.651 -1.737,-0.997 -3.347,-2.063 -4.827,-3.199 l -8.292,13.41 c 2.964,2.218 6.067,4.019 9.316,5.387 3.25,1.368 6.438,2.435 9.568,3.2 3.134,0.772 6.099,1.283 8.889,1.538 2.791,0.263 5.241,0.387 7.349,0.387 5.868,0 11.124,-0.649 15.766,-1.964 4.647,-1.306 8.549,-3.146 11.71,-5.519 3.163,-2.357 5.58,-5.179 7.262,-8.456 1.683,-3.276 2.521,-6.879 2.521,-10.805 0,-7.01 -2.504,-12.467 -7.519,-16.37" id="path2992" inkscape:connector-curvature="0" />
	<path d="m 530.271,700.99 c -3.393,-3.787 -7.462,-6.725 -12.22,-8.804 -4.757,-2.079 -9.982,-3.115 -15.679,-3.115 -6.044,0 -11.553,1.036 -16.538,3.115 -4.987,2.079 -9.273,5.017 -12.862,8.804 -3.59,3.787 -6.378,8.332 -8.375,13.626 -1.994,5.303 -2.991,11.146 -2.991,17.522 0,6.492 1.026,12.39 3.078,17.692 2.05,5.294 4.924,9.823 8.628,13.58 3.704,3.764 8.121,6.67 13.25,8.719 5.125,2.056 10.767,3.076 16.917,3.076 6.208,0 12.121,-0.851 17.732,-2.566 5.611,-1.708 10.922,-4.699 15.938,-8.966 l -8.885,-12.729 c -3.42,2.728 -7.195,4.854 -11.327,6.36 -4.131,1.515 -8.247,2.265 -12.347,2.265 -2.908,0 -5.699,-0.394 -8.373,-1.197 -2.68,-0.797 -5.101,-2.033 -7.266,-3.719 -2.166,-1.677 -4.017,-3.833 -5.557,-6.453 -1.534,-2.62 -2.591,-5.781 -3.157,-9.484 h 60.499 c 0.116,-1.027 0.2,-2.102 0.259,-3.246 0.054,-1.136 0.085,-2.28 0.085,-3.416 0,-6.377 -0.954,-12.204 -2.863,-17.476 -1.905,-5.271 -4.556,-9.801 -7.946,-13.588 m -49.95,24.138 c 0.456,-2.96 1.254,-5.681 2.394,-8.154 1.14,-2.48 2.605,-4.614 4.4,-6.415 1.797,-1.793 3.93,-3.169 6.408,-4.143 2.481,-0.966 5.315,-1.453 8.504,-1.453 5.694,0 10.34,1.77 13.93,5.302 3.591,3.533 5.867,8.487 6.837,14.863 h -42.473 z" id="path2994" inkscape:connector-curvature="0" />
	<path d="m 767.554,701.121 c -2.853,-3.647 -6.381,-6.569 -10.598,-8.757 -4.212,-2.195 -9.259,-3.293 -15.122,-3.293 -5.754,0 -11.114,1.066 -16.068,3.2 -4.955,2.141 -9.283,5.116 -12.985,8.935 -3.706,3.811 -6.616,8.355 -8.719,13.627 -2.109,5.271 -3.165,11.037 -3.165,17.306 0,6.269 1.056,12.034 3.165,17.306 2.103,5.271 5.013,9.809 8.719,13.635 3.702,3.811 8.03,6.786 12.985,8.927 4.954,2.134 10.314,3.2 16.068,3.2 5.863,0 10.91,-1.082 15.122,-3.246 4.217,-2.165 7.745,-5.07 10.598,-8.711 v 9.823 h 17.861 v -81.867 h -17.861 v 9.915 z m -0.68,41.444 c -1.198,3.192 -2.879,5.951 -5.043,8.285 -2.168,2.343 -4.758,4.174 -7.78,5.512 -3.014,1.345 -6.38,2.01 -10.082,2.01 -3.873,0 -7.335,-0.696 -10.381,-2.095 -3.049,-1.392 -5.627,-3.277 -7.732,-5.635 -2.11,-2.365 -3.733,-5.14 -4.873,-8.332 -1.141,-3.192 -1.709,-6.578 -1.709,-10.172 0,-3.586 0.568,-6.979 1.709,-10.172 1.14,-3.185 2.763,-5.967 4.873,-8.324 2.105,-2.373 4.684,-4.251 7.732,-5.643 3.046,-1.398 6.508,-2.095 10.381,-2.095 3.702,0 7.068,0.673 10.082,2.01 3.022,1.338 5.612,3.169 7.78,5.512 2.164,2.334 3.845,5.093 5.043,8.285 1.194,3.192 1.789,6.662 1.789,10.427 0,3.765 -0.595,7.235 -1.789,10.427" id="path2996" inkscape:connector-curvature="0" />
	<path d="m 439.629,756.748 c -2.877,1.083 -5.71,1.624 -8.504,1.624 -1.824,0 -3.519,-0.278 -5.086,-0.858 -1.567,-0.564 -2.931,-1.461 -4.1,-2.689 -1.167,-1.222 -2.093,-2.806 -2.777,-4.738 -0.686,-1.933 -1.026,-4.274 -1.026,-7.011 v -35.631 h 28.683 v -16.239 h -28.683 v -24.78 h -17.945 v 24.78 h -16.32 v 16.239 h 16.32 v 35.972 c 0,10.882 2.576,18.897 7.731,24.061 5.157,5.155 12.38,7.729 21.667,7.729 5.184,0 9.837,-0.797 13.97,-2.389 2.73,-1.059 5.262,-2.265 7.633,-3.594 l -6.106,-14.948 c -1.73,0.918 -3.542,1.753 -5.457,2.472" id="path2998" inkscape:connector-curvature="0" />
	<path d="m 600.874,689.071 c -5.013,0 -9.538,0.912 -13.588,2.729 -4.046,1.824 -7.432,6.215 -10.168,10.148 v -10.743 h -16.216 v 81.867 h 16.386 v -45.038 c 0,-3.47 0.483,-6.577 1.453,-9.313 0.971,-2.736 2.308,-5.039 4.016,-6.917 1.712,-1.887 3.761,-3.309 6.156,-4.274 2.389,-0.967 5.009,-1.453 7.856,-1.453 2.172,0 4.503,0.255 7.011,0.772 1.279,0.255 2.474,0.58 3.59,0.959 l 5.279,-17.09 c -1.434,-0.448 -2.887,-0.842 -4.382,-1.098 -2.195,-0.363 -4.657,-0.549 -7.393,-0.549" id="path3000" inkscape:connector-curvature="0" />
	<path d="m 849.151,689.071 c -5.017,0 -9.542,0.912 -13.592,2.729 -4.042,1.824 -7.432,6.215 -10.164,10.148 v -10.743 h -16.22 v 81.867 h 16.39 v -45.038 c 0,-3.47 0.483,-6.577 1.453,-9.313 0.967,-2.736 2.308,-5.039 4.016,-6.917 1.708,-1.887 3.76,-3.309 6.152,-4.274 2.393,-0.967 5.013,-1.453 7.86,-1.453 2.168,0 4.499,0.255 7.007,0.772 1.279,0.255 2.474,0.58 3.59,0.959 l 5.279,-17.09 c -1.434,-0.448 -2.883,-0.842 -4.379,-1.098 -2.198,-0.363 -4.66,-0.549 -7.392,-0.549" id="path3002" inkscape:connector-curvature="0" />
	<path d="m 932.572,657.931 v 43.19 c -2.852,-3.647 -6.384,-6.569 -10.597,-8.757 -4.216,-2.195 -9.263,-3.293 -15.126,-3.293 -5.754,0 -11.11,1.066 -16.064,3.2 -4.959,2.141 -9.287,5.116 -12.989,8.935 -3.706,3.811 -6.608,8.355 -8.715,13.627 -2.114,5.271 -3.165,11.037 -3.165,17.306 0,6.269 1.051,12.034 3.165,17.306 2.106,5.271 5.009,9.809 8.715,13.635 3.702,3.811 8.03,6.786 12.989,8.927 4.954,2.134 10.311,3.2 16.064,3.2 5.863,0 10.91,-1.082 15.126,-3.246 4.213,-2.165 7.745,-5.07 10.597,-8.711 v 9.823 H 950.43 V 657.931 h -17.858 z m -0.684,84.634 c -1.198,3.192 -2.879,5.951 -5.043,8.285 -2.165,2.343 -4.758,4.174 -7.776,5.512 -3.018,1.345 -6.384,2.01 -10.082,2.01 -3.877,0 -7.339,-0.696 -10.385,-2.095 -3.049,-1.392 -5.627,-3.277 -7.733,-5.635 -2.109,-2.365 -3.732,-5.14 -4.873,-8.332 -1.14,-3.192 -1.708,-6.578 -1.708,-10.172 0,-3.586 0.568,-6.979 1.708,-10.172 1.141,-3.185 2.764,-5.967 4.873,-8.324 2.106,-2.373 4.685,-4.251 7.733,-5.643 3.046,-1.398 6.508,-2.095 10.385,-2.095 3.698,0 7.064,0.673 10.082,2.01 3.019,1.338 5.611,3.169 7.776,5.512 2.164,2.334 3.845,5.093 5.043,8.285 1.194,3.192 1.789,6.662 1.789,10.427 0,3.765 -0.594,7.235 -1.789,10.427" id="path3004" inkscape:connector-curvature="0" />
	<path d="m 643.616,713.21 c 2.276,-2.304 4.985,-4.104 8.12,-5.388 3.134,-1.274 6.523,-1.917 10.168,-1.917 4.015,0 7.74,0.635 11.188,1.917 3.331,1.237 6.218,2.969 8.668,5.171 l 8.6,-14.299 c -3.224,-2.581 -6.856,-4.691 -10.895,-6.338 -5.384,-2.188 -11.234,-3.285 -17.561,-3.285 -6.323,0 -12.174,1.098 -17.562,3.285 -5.383,2.195 -10.024,5.217 -13.928,9.059 -3.899,3.85 -6.964,8.395 -9.183,13.635 -2.226,5.24 -3.339,10.937 -3.339,17.089 0,6.152 1.113,11.849 3.339,17.089 2.219,5.241 5.283,9.785 9.183,13.635 3.903,3.842 8.545,6.863 13.928,9.059 5.388,2.188 11.238,3.285 17.562,3.285 6.326,0 12.177,-1.098 17.561,-3.285 4.038,-1.646 7.671,-3.757 10.895,-6.338 l -8.6,-14.299 c -2.45,2.195 -5.337,3.926 -8.668,5.163 -3.447,1.283 -7.173,1.925 -11.188,1.925 -3.645,0 -7.034,-0.642 -10.168,-1.925 -3.135,-1.275 -5.844,-3.076 -8.12,-5.38 -2.276,-2.311 -4.073,-5.07 -5.383,-8.285 -1.311,-3.224 -1.964,-6.771 -1.964,-10.644 0,-3.873 0.653,-7.42 1.964,-10.636 1.309,-3.223 3.106,-5.982 5.383,-8.293" id="path3006" inkscape:connector-curvature="0" />
	<path d="m 988.056,761.077 c 1.187,0 2.303,0.224 3.343,0.664 1.044,0.434 1.952,1.036 2.725,1.786 0.776,0.757 1.384,1.638 1.832,2.65 0.448,1.012 0.668,2.095 0.668,3.247 0,1.136 -0.22,2.218 -0.668,3.23 -0.448,1.021 -1.056,1.909 -1.832,2.666 -0.772,0.766 -1.681,1.368 -2.725,1.809 -1.04,0.441 -2.156,0.657 -3.343,0.657 -1.214,0 -2.35,-0.216 -3.404,-0.657 -1.052,-0.44 -1.964,-1.043 -2.74,-1.809 -0.773,-0.757 -1.384,-1.646 -1.82,-2.666 -0.44,-1.013 -0.661,-2.095 -0.661,-3.23 0,-1.152 0.221,-2.234 0.661,-3.247 0.437,-1.013 1.047,-1.894 1.82,-2.65 0.776,-0.75 1.688,-1.353 2.74,-1.786 1.055,-0.44 2.19,-0.664 3.404,-0.664 m 0,14.392 c 0.831,0 1.611,-0.162 2.342,-0.479 0.73,-0.316 1.368,-0.75 1.905,-1.291 0.537,-0.541 0.966,-1.183 1.275,-1.916 0.306,-0.727 0.46,-1.516 0.46,-2.357 0,-0.835 -0.154,-1.616 -0.46,-2.35 -0.31,-0.742 -0.738,-1.376 -1.275,-1.917 -0.537,-0.541 -1.175,-0.967 -1.905,-1.283 -0.73,-0.317 -1.511,-0.472 -2.342,-0.472 -0.854,0 -1.65,0.154 -2.389,0.472 -0.738,0.316 -1.379,0.742 -1.924,1.283 -0.545,0.541 -0.975,1.175 -1.283,1.917 -0.31,0.733 -0.464,1.515 -0.464,2.35 0,0.842 0.154,1.631 0.464,2.357 0.309,0.733 0.738,1.375 1.283,1.916 0.545,0.541 1.186,0.975 1.924,1.291 0.739,0.317 1.535,0.479 2.389,0.479 m 0.484,-9.747 c 1.016,0 1.789,0.232 2.314,0.681 0.525,0.456 0.788,1.059 0.788,1.816 0,0.587 -0.186,1.082 -0.567,1.476 -0.375,0.387 -0.924,0.649 -1.646,0.766 l 2.307,2.667 h -2.492 l -2.06,-2.59 h -0.244 v 2.59 h -2.079 v -7.405 h 3.679 z m -1.601,1.808 v 1.354 h 1.565 c 0.321,0 0.568,-0.047 0.738,-0.147 0.174,-0.101 0.263,-0.278 0.263,-0.518 0,-0.24 -0.089,-0.418 -0.263,-0.525 -0.17,-0.108 -0.417,-0.163 -0.738,-0.163 h -1.565 z" id="path3008" inkscape:connector-curvature="0" />
	<path d="m 382.75,308.53 c 0,-98.08 45.819,-185.4 117.157,-241.912 C 447.302,24.946 380.851,0 308.53,0 138.134,0 0,138.137 0,308.53 c 0,170.393 138.134,308.528 308.53,308.528 72.32,0 138.772,-24.942 191.377,-66.618 C 428.569,493.933 382.75,406.608 382.75,308.53" id="path3010" style="fill:url(#linearGradient3116);fill-opacity:1" inkscape:connector-curvature="0" />
	<path d="m 382.75,308.53 c 0,98.078 45.819,185.402 117.157,241.91 71.336,-56.508 117.155,-143.832 117.155,-241.91 0,-98.08 -45.818,-185.4 -117.155,-241.912 C 428.569,123.13 382.75,210.451 382.75,308.53" id="path3012" style="fill:url(#linearGradient3124);fill-opacity:1" inkscape:connector-curvature="0" />
	<path d="m 978.893,475.413 v -9.027 h -3.656 v -2.481 h 10.006 v 2.481 h -3.652 v 9.027 h -2.698 z m 19.339,0 v -7.984 l -2.594,6.887 h -2.855 l -2.594,-6.871 v 7.969 h -2.697 v -11.509 h 3.865 l 2.863,7.366 2.841,-7.366 h 3.868 v 11.509 h -2.697 z" id="path3014" style="fill:silver;fill-opacity:1" inkscape:connector-curvature="0" />
	<path d="M 691.282,0 C 618.96,0 552.508,24.946 499.907,66.618 c 71.336,56.516 117.155,143.833 117.155,241.912 0,98.078 -45.818,185.402 -117.155,241.91 52.601,41.676 119.053,66.618 191.375,66.618 170.395,0 308.53,-138.136 308.53,-308.528 C 999.812,138.133 861.676,0 691.282,0" id="path3016" style="fill:url(#linearGradient3126);fill-opacity:1" inkscape:connector-curvature="0" />
</g>
</svg>